<svg width="880" height="720" version="1.0" xmlns="http://www.w3.org/2000/svg" xmlns:xlink="http://www.w3.org/1999/xlink">
<marker id="mid000"    viewBox="-1 -1 2 2"   markerWidth="3.3" markerHeight="3.3"><path d="m0-1 1 1-1 1-1-1z"/></marker>
<marker id="midF00"    viewBox="-1 -1 2 2"   markerWidth="3.3" markerHeight="3.3"><path d="m0-1 1 1-1 1-1-1z" fill="#F00"/></marker>
<marker id="mid00F"    viewBox="-1 -1 2 2"   markerWidth="3.3" markerHeight="3.3"><path d="m0-1 1 1-1 1-1-1z" fill="#00F"/></marker>
<marker id="mid006428" viewBox="-1 -1 2 2"   markerWidth="3.3" markerHeight="3.3"><path d="m0-1 1 1-1 1-1-1z" fill="#006428"/></marker>
<marker id="midFF7F00" viewBox="-1 -1 2 2"   markerWidth="3.3" markerHeight="3.3"><path d="m0-1 1 1-1 1-1-1z" fill="#FF7F00"/></marker>
<marker id="end000"    viewBox="-37 -2 74 4" markerWidth="3.7" markerHeight=".2"> <path d="m-37-2h74v4h-74z"/></marker>
<marker id="endF00"    viewBox="-37 -2 74 4" markerWidth="3.7" markerHeight=".2"> <path d="m-37-2h74v4h-74z" fill="#F00"/></marker>
<marker id="end00F"    viewBox="-37 -2 74 4" markerWidth="3.7" markerHeight=".2"> <path d="m-37-2h74v4h-74z" fill="#00F"/></marker>
<marker id="end006428" viewBox="-37 -2 74 4" markerWidth="3.7" markerHeight=".2"> <path d="m-37-2h74v4h-74z" fill="#006428"/></marker>
<marker id="endFF7F00" viewBox="-37 -2 74 4" markerWidth="3.7" markerHeight=".2"> <path d="m-37-2h74v4h-74z" fill="#FF7F00"/></marker>

<rect width="880" height="720" fill="#FFF"/>

<g fill="none" stroke="#000" stroke-width="1.77" stroke-linecap="round" stroke-linejoin="round">
<path d="M127.88 82.72H843.8V623.04H127.88Zm7.12 0V93.53m111.09 0V82.72m160.53 0V93.53m208.35 0V82.72M172.56 612.23v10.81m13.85 0V612.23m12.05 0v10.81m10.88 0V612.23m10.06 0v10.81m9.39 0V612.23m8.89 0v10.81m8.44 0V612.23m76.04 0v10.81m55.02 0V612.23m48.01 0v10.81m83.41 0V612.23m37.42 0v10.81m35.33 0V612.23m33.63 0v10.81"/>
<path d="M155.5 606.81v16.23m98.69 0V606.81m214.37 0v16.23m178.55 0V606.81m144.5 0v16.23" stroke-width="2.13"/>
<g id="ticks6">
<g id="ticks3">
<path id="ticks" d="M135.03 541.97h-7.15m0 9.01h7.15m0 9.02h-7.15m0 9.01h7.15m0 9.01h-7.15m0 9.01h7.15m0 9.01h-7.15m0 9.01h7.15m0 9.01h-7.15m0 8.98h14.31"/>
<use xlink:href="#ticks" y="-90.05"/>
<use xlink:href="#ticks" y="-180.11"/>
</g>
<use xlink:href="#ticks3" y="-270.16"/>
</g>
<use xlink:href="#ticks6" x="-971.6" transform="scale(-1,1)"/>
</g>

<path d="M135.4 433.3c5.6 49.18 9.29 94.73 25.05 101.22S208.22 504.83 234.2 435c28.48-81.38 41.53-152.08 55.48-211.8 8.77-32.85 25.42-116.27 43.32-116.27s31.95 81.57 38.23 116.27c9.91 55.57 24.59 154.38 37 204.4 7.52 28.85 15.01 43.87 22.24 43.98s15.86-17.78 24.95-38.72 16.91-39.6 27.84-39.71S503 415.33 511.07 433s16.8 39.96 26.93 39.77 16.9-17.24 24.9-32.67 14.96-31.57 24-31.9c12 0 21.23 29.61 28.23 52.21l-1.01.31C606.98 438.25 597.73 411 587.4 411c-8.54.17-15.3 16.73-22.63 29.89s-15.31 34.47-26.51 34.8-20.59-22.66-29.33-42.19-16.33-35.94-25.67-35.72-15.46 13.55-25.57 35.65-17.96 42.05-27.35 42.22-16.89-19.07-24.21-47.92c-12.81-49.89-27.15-149.05-38.01-204.75s-20.97-96.78-34.9-96.75-29.87 64.37-37.94 97.22c-15 60.14-28.2 132.84-55.43 212.8S173.84 561.95 152 564.96c-2.83.57-5.68 1.08-10.17 3.59l-2.86 4.92-3.55 14.25Z" fill="#FF9696"/>
<path d="M135 510.44c9.74 27.51 13.62 37.27 24.62 37.91s46.33-24.84 77.8-112.7c27.28-81.38 40.72-152.73 55.04-212.23 8.77-32.85 23.94-106.74 40.97-106.74s29.79 72.25 36.29 106.52c9.81 55.7 25.45 154.38 37.21 204.4 7.85 28.85 15.31 46.1 23.37 46.21s17.18-19.68 26.27-40.59 17.08-37.77 26.88-37.91S502.13 416 509.95 433s16.6 40.56 27.5 41.14 18.38-18.61 26.6-33.79 14.48-30.57 22.95-30.57 13.21 10.12 21.51 31.42c9.22 23.88 24.69 97.15 44.01 97.15 11.85 0 23.4-21.55 34.48-21.55 21.13 0 32.5 49.1 53.87 49.1 11.13 0 20.95-12.2 31.73-12.2 25.36 0 33.37 50.03 71.03 37" fill="none" stroke="#969696"/>

<g fill="none" stroke-width="2.13">
<g stroke="#000" marker-start="url(#end000)" marker-mid="url(#mid000)" marker-end="url(#end000)">
<path d="M135 602.56v.64.64"/>
<path d="M138.46 525.99v.67.66"/>
<path d="M142.89 516.71v.49.52"/>
<path d="M147.96 537.82v.57.52"/>
<path d="M154.48 550.01v.43.45"/>
<path d="M161.14 551.89v.57.56"/>
<path d="M167.91 545.09v.49.5"/>
<path d="M175.53 558.27v.57.56"/>
<path d="M183.15 529.71v.6.6"/>
<path d="M190.77 518.41v.67.67"/>
<path d="M199.03 493.5v.67.67"/>
<path d="M207.78 503.7v.82.77"/>
<path d="M215.96 488.36v.92.89"/>
<path d="M224.64 465.68v.92.93"/>
<path d="M234.18 442.9v1.03 1.02"/>
<path d="M243.64 414.02v1.21 1.16"/>
<path d="M252.99 389.36v1.31 1.31"/>
<path d="M262.7 346.88v1.48 1.45"/>
<path d="M273.07 312.86v1.59 1.56"/>
<path d="M283.67 248.69v1.84 1.85"/>
<path d="M294.16 220.73v2.06 2.02"/>
<path d="M305.18 181.44v2.16 2.2"/>
<path d="M316.74 132.26v2.41 2.41"/>
<path d="M328.39 117.37v2.59 2.59"/>
<path d="M340.19 114.51v2.76 2.76"/>
<path d="M352.7 141.36v2.77 2.76"/>
<path d="M365.81 190.57v2.83 2.8"/>
<path d="M379.24 274.9v2.76 2.77"/>
<path d="M393.41 358.88v2.62 2.62"/>
<path d="M408.29 421.45V424v2.55"/>
<path d="M424.06 465.53v2.62 2.59"/>
<path d="M441.25 457.77v2.98 3.01"/>
<path d="M459.99 418.37v3.75 3.76"/>
<path d="M480.47 397.04v4.46 4.47"/>
<path d="M503.75 420.42v5.43 5.42"/>
<path d="M530.96 466.03v7.12 7.12"/>
<path d="M564.8 436.34V447.5v11.13"/>
<path d="M611.5 396.55v21.12 21.12"/>
<path d="M642.83 340.67v81.96 81.99"/>
</g>
<g stroke="#F00" marker-start="url(#endF00)" marker-mid="url(#midF00)" marker-end="url(#endF00)">
<path d="M607.04 414.77v31.32 31.32"/>
<path d="M685.84 503.98V527.9v23.92"/>
<path d="M736.83 537.97v23.35 23.34"/>
</g>
<g stroke="#00F" marker-start="url(#end00F)" marker-mid="url(#mid00F)" marker-end="url(#end00F)">
<path d="M595.66 383.94V415.9v31.99"/>
<path d="M642.68 537.4v13.78 13.75"/>
<path d="M686.44 486.73v18.78 18.78"/>
<path d="M730.59 558.84v11.72 11.7"/>
<path d="M771.62 554.37v12.12 12.08"/>
<path d="M812.8 581.44v9.96 9.96"/>
</g>
<g stroke="#006428" marker-start="url(#end006428)" marker-mid="url(#mid006428)" marker-end="url(#end006428)">
<path d="M518.17 447.75v12.78V473.3"/>
<path d="M536.88 460.47v13.08 13.07"/>
<path d="M555.02 422.56v15.59 15.56"/>
<path d="M572.7 389.75V408v18.25"/>
<path d="M589.89 434.4v18.63 18.61"/>
<path d="M606.72 431.27v20.48 20.49"/>
<path d="M623.13 469.68v21.18 21.2"/>
<path d="M639.17 524.89v21.08 21.05"/>
<path d="M654.95 508.06v24.59 24.59"/>
<path d="M670.36 504.3v29.13 29.16"/>
<path d="M685.52 477.94v34.41 34.4"/>
<path d="M715.04 532.23v21.4 21.4"/>
<path d="M764.47 469.12v41.81 41.85"/>
</g>
<g stroke="#FF7F00" marker-start="url(#endFF7F00)" marker-mid="url(#midFF7F00)" marker-end="url(#endFF7F00)">
<path d="M555.38 508.45V476.38 444.32"/>
<path d="M580.32 421.36V399.17 376.99"/>
<path d="M612.99 507.85V483.19 458.52"/>
<path d="M645.52 543V520.82 498.6"/>
<path d="M682.83 584.28V562.1 539.88"/>
<path d="M727.72 568.23V538.64 509.02"/>
<path d="M766.42 609.04V554.76 500.51"/>
</g>
</g>

<g font-family="DejaVu Sans" font-size="22.5">
<text x="676" y="133.5">WMAP</text>
<text x="676" y="160.5" fill="#00F">Acbar</text>
<text x="676" y="187.5" fill="#006428">Boomerang</text>
<text x="676" y="214.5" fill="#F00">CBI</text>
<text x="676" y="241.5" fill="#FF7F00">VSA</text>
<g text-anchor="middle" font-size="24">
<g font-size="25">
<text x="486" y="687">Multipole moment <tspan font-style="italic">ℓ</tspan></text>
<text x="486" y="38.5">Angular scale</text>
<text font-style="italic" transform="matrix(0,-1,1,0,40,360)">ℓ&#x2005;(ℓ+1)C<tspan dx="-2" dy="11" font-size="15">ℓ</tspan><tspan dy="-5">&#x2002;<tspan font-size="36">⁄</tspan><tspan dy="-6">&#x2005;2π </tspan><tspan font-style="normal">[ </tspan>μ</tspan><tspan font-style="normal">K<tspan dy="-11" font-size="15">2</tspan><tspan dy="11"> ]</tspan></tspan></text>
</g>
<text x="135" y="73">90°</text>
<text x="246.09" y="73">2°</text>
<text x="406.62" y="73">0.5°</text>
<text x="614.97" y="73">0.2°</text>
<text x="155.5" y="657.5">10</text>
<text x="254.19" y="657.5">100</text>
<text x="468.56" y="657.5">500</text>
<text x="647.11" y="657.5">1000</text>
<text x="791.61" y="657.5">1500</text>
</g>
<g text-anchor="end">
<text x="118" y="624">0</text>
<text x="118" y="543">1000</text>
<text x="118" y="453">2000</text>
<text x="118" y="363">3000</text>
<text x="118" y="273">4000</text>
<text x="118" y="183">5000</text>
<text x="118" y="99.5">6000</text>
</g>
</g>
</svg>